<?xml version="1.0" standalone="no"?>
<!DOCTYPE svg PUBLIC "-//W3C//DTD SVG 20010904//EN"
 "http://www.w3.org/TR/2001/REC-SVG-20010904/DTD/svg10.dtd">
<svg version="1.0" xmlns="http://www.w3.org/2000/svg"
 width="512.000000pt" height="512.000000pt" viewBox="0 0 512.000000 512.000000"
 preserveAspectRatio="xMidYMid meet">
<metadata>
Created by potrace 1.16, written by Peter Selinger 2001-2019
</metadata>
<g transform="translate(0.000000,512.000000) scale(0.100000,-0.100000)"
fill="#000000" stroke="none">
<path d="M1825 4860 c-248 -53 -426 -150 -611 -334 -120 -120 -171 -192 -239
-331 -94 -196 -120 -323 -112 -565 7 -238 51 -388 174 -593 68 -115 240 -291
365 -374 395 -263 931 -263 1326 0 125 83 297 259 365 374 123 205 167 355
174 593 8 242 -18 369 -112 565 -68 139 -119 211 -239 331 -187 186 -365 283
-615 334 -132 27 -348 27 -476 0z"/>
<path d="M3685 3996 c-45 -19 -83 -70 -90 -119 -3 -23 -5 -240 -3 -482 3 -419
4 -442 23 -474 11 -18 36 -42 55 -52 33 -18 69 -19 642 -19 683 0 667 -2 706
69 22 38 22 46 22 513 l0 475 -23 34 c-47 71 -22 69 -697 69 -480 -1 -611 -4
-635 -14z m1250 -88 l26 -23 -3 -330 -3 -329 -150 174 c-82 96 -156 180 -165
187 -25 20 -78 26 -111 13 -19 -8 -84 -77 -176 -187 l-146 -175 -56 56 c-113
111 -133 106 -323 -82 l-148 -146 0 410 c0 423 1 433 40 447 8 3 279 6 602 6
l587 1 26 -22z m-219 -532 c71 -82 155 -179 186 -215 57 -65 58 -67 58 -128 0
-112 56 -103 -636 -103 -416 0 -602 3 -616 11 -19 10 -8 23 143 175 90 90 170
164 178 164 7 0 47 -31 87 -70 48 -45 82 -70 97 -70 18 0 61 45 186 196 90
107 169 194 175 192 7 -2 71 -70 142 -152z"/>
<path d="M3879 3767 c-39 -26 -69 -79 -69 -122 0 -110 133 -183 227 -125 92
55 87 206 -7 255 -44 23 -111 19 -151 -8z"/>
<path d="M3455 3438 c-42 -126 -145 -538 -145 -579 0 -54 28 -102 71 -124 17
-9 174 -55 348 -101 174 -47 390 -104 481 -129 91 -24 200 -53 242 -64 133
-36 207 -21 242 47 25 48 78 251 71 272 -4 14 -15 20 -35 20 -16 0 -31 -4 -34
-8 -3 -5 -19 -60 -36 -123 -33 -121 -49 -149 -87 -149 -19 0 -773 198 -1030
270 -39 11 -78 20 -86 20 -27 0 -67 40 -67 68 0 15 32 144 70 287 39 143 69
269 68 280 -4 24 -65 35 -73 13z"/>
<path d="M929 2558 c-102 -67 -154 -112 -290 -247 -133 -133 -181 -189 -242
-281 -170 -260 -277 -517 -337 -817 -33 -167 -48 -138 178 -362 217 -217 310
-293 500 -413 303 -191 618 -310 962 -364 163 -26 567 -26 730 0 344 54 659
173 962 364 190 120 283 196 501 413 225 224 210 195 177 362 -60 300 -171
568 -343 826 -52 79 -111 146 -226 262 -86 86 -182 175 -214 198 -63 46 -216
141 -227 141 -3 0 -46 -36 -96 -81 -291 -263 -649 -385 -1024 -349 -293 28
-550 143 -776 350 -48 44 -92 80 -99 80 -6 0 -67 -37 -136 -82z"/>
</g>
</svg>
